<svg viewBox="0 0 90 72" xmlns="http://www.w3.org/2000/svg" ><path d="M76.21 0c-7.413 0-13.45 6.06-13.45 13.5S68.797 27 76.21 27c7.413 0 13.45-6.06 13.45-13.5S83.623 0 76.21 0Zm0 3c5.799 0 10.461 4.68 10.461 10.5S82.01 24 76.21 24s-10.461-4.68-10.461-10.5S70.41 3 76.21 3Zm0 3c-.828 0-1.494.669-1.494 1.5V12h-4.484c-.828 0-1.494.669-1.494 1.5s.666 1.5 1.494 1.5h4.484v4.5a1.494 1.494 0 1 0 2.989 0V15h4.483c.828 0 1.494-.669 1.494-1.5s-.666-1.5-1.494-1.5h-4.483V7.5c0-.831-.667-1.5-1.495-1.5ZM31.376 39h38.856c.828 0 1.495.669 1.495 1.5S71.06 42 70.232 42H31.376a1.494 1.494 0 0 1-1.495-1.5c0-.831.667-1.5 1.495-1.5Zm-2.99-12h35.868c.828 0 1.495.669 1.495 1.5s-.667 1.5-1.495 1.5H28.387a1.494 1.494 0 0 1-1.495-1.5c0-.831.667-1.5 1.495-1.5Zm35.868 30c-4.11 0-7.472 3.375-7.472 7.5s3.362 7.5 7.472 7.5 7.473-3.375 7.473-7.5-3.363-7.5-7.473-7.5Zm0 3a4.47 4.47 0 0 1 4.484 4.5 4.47 4.47 0 0 1-4.484 4.5 4.47 4.47 0 0 1-4.483-4.5 4.47 4.47 0 0 1 4.483-4.5Zm-29.89-3c-4.11 0-7.472 3.375-7.472 7.5s3.363 7.5 7.473 7.5c4.11 0 7.472-3.375 7.472-7.5S38.474 57 34.365 57Zm0 3a4.47 4.47 0 0 1 4.484 4.5 4.47 4.47 0 0 1-4.483 4.5 4.47 4.47 0 0 1-4.484-4.5 4.47 4.47 0 0 1 4.484-4.5ZM1.51 3c-2.003 0-2.024 3 0 3h10.736a7044.422 7044.422 0 0 0 6.97 32.988c.876 4.08 1.51 6.981 1.758 7.899.394 1.482.765 3.165 1.853 4.632 1.082 1.464 2.99 2.478 5.56 2.478h41.821c2.57 0 4.478-1.014 5.566-2.478 1.085-1.47 1.452-3.15 1.853-4.635.26-.996.67-3.309 1.225-6.21.547-2.91 1.196-6.279 1.794-8.841.493-1.839-2.559-2.64-2.906-.678-.615 2.652-1.276 6.036-1.829 8.952-.553 2.919-1.037 5.496-1.172 6-.406 1.518-.786 2.835-1.365 3.618-.58.786-1.256 1.272-3.163 1.272H28.387c-1.907 0-2.583-.486-3.169-1.272-.577-.78-.956-2.1-1.363-3.615-.15-.579-.837-3.681-1.715-7.755-.876-4.074-1.973-9.228-3.04-14.292-2.14-10.119-4.185-19.872-4.185-19.872a1.494 1.494 0 0 0-1.464-1.188L1.51 3Zm23.894 12c-1.988 0-1.964 3 0 3h29.865c2.009 0 1.964-3 0-3H25.404Z" /></svg>
